<?xml version="1.0" standalone="no"?>
<!DOCTYPE svg PUBLIC "-//W3C//DTD SVG 20010904//EN"
 "http://www.w3.org/TR/2001/REC-SVG-20010904/DTD/svg10.dtd">
<svg version="1.0" xmlns="http://www.w3.org/2000/svg"
 width="50.000000pt" height="50.000000pt" viewBox="0 0 50.000000 50.000000"
 preserveAspectRatio="xMidYMid meet">
<metadata>
Created by potrace 1.16, written by Peter Selinger 2001-2019
</metadata>
<g transform="translate(0.000000,50.000000) scale(0.025000,-0.025000)"
fill="#000000" stroke="none">
<path d="M394 1409 c-10 -11 -32 -57 -50 -102 -65 -170 -129 -331 -164 -410
-12 -27 -22 -58 -23 -68 -1 -10 -4 -19 -8 -19 -4 0 -13 -17 -20 -37 -6 -21
-16 -43 -21 -50 -23 -28 -2 -38 83 -39 46 -1 92 2 101 7 9 5 26 29 37 54 22
51 8 47 186 45 60 0 113 -4 117 -8 5 -5 18 -28 31 -53 l22 -44 65 -2 c129 -3
147 9 115 71 -8 15 -15 32 -15 37 0 9 -67 169 -106 256 -13 28 -24 55 -24 58
0 8 -26 69 -46 108 -8 16 -14 33 -14 38 0 10 -29 78 -58 139 l-17 35 -87 2
c-75 1 -89 -1 -104 -18z m151 -300 c17 -2 17 -2 -3 -6 l-22 -4 21 -30 c16 -23
26 -28 47 -23 25 5 25 4 7 -7 -26 -16 -36 -31 -30 -46 4 -13 -27 -35 -57 -40
-10 -2 -18 2 -18 8 0 7 -10 9 -24 5 -18 -4 -29 -1 -39 14 -7 11 -16 19 -18 17
-2 -1 1 3 6 8 13 12 55 100 55 115 0 6 6 17 13 24 10 12 14 10 27 -10 8 -13
24 -25 35 -25z"/>
<path d="M947 1424 c-4 -4 -7 -173 -7 -376 l0 -368 30 0 30 0 0 81 c0 73 -2
81 -17 75 -15 -5 -15 -4 1 9 18 14 19 31 20 297 l1 283 -25 3 c-14 2 -29 0
-33 -4z"/>
<path d="M1371 1415 c-35 -8 -71 -21 -80 -28 -9 -8 -26 -18 -38 -21 -37 -12
-128 -121 -153 -184 -89 -229 61 -485 305 -518 83 -12 121 -7 184 24 l53 25
17 -22 c15 -20 24 -22 82 -19 l64 3 2 213 2 212 -27 1 c-130 6 -315 0 -325
-10 -11 -11 -12 -130 0 -141 2 -3 39 -5 81 -5 60 0 77 -3 79 -15 6 -38 -73
-84 -152 -88 -58 -4 -141 48 -172 107 -58 111 -10 225 122 288 40 19 41 19
100 -2 33 -11 71 -28 85 -38 35 -25 45 -22 116 29 73 51 73 59 6 112 -95 76
-227 105 -351 77z"/>
</g>
</svg>
